<svg width="32" height="40" viewBox="0 0 32 40" fill="none" xmlns="http://www.w3.org/2000/svg">
<path d="M13.642 0.00600004L13.842 0.04L30.842 4.04C31.137 4.10902 31.4042 4.26578 31.6084 4.48962C31.8126 4.71346 31.9443 4.99389 31.986 5.294L32 5.5V34.5C32.0001 34.803 31.9085 35.099 31.7371 35.3489C31.5657 35.5988 31.3227 35.7909 31.04 35.9L30.844 35.96L13.844 39.96C13.6406 40.0079 13.4294 40.0128 13.224 39.9743C13.0186 39.9359 12.8235 39.8549 12.6512 39.7367C12.4789 39.6184 12.3333 39.4655 12.2235 39.2877C12.1138 39.1098 12.0424 38.911 12.014 38.704L12 38.5V1.5C11.9997 1.11136 12.1503 0.737787 12.4201 0.457984C12.6898 0.178182 13.0576 0.0139911 13.446 0L13.642 0.00600004ZM15 3.394V36.606L29 33.312V6.688L15 3.394ZM10 4V7H3V33H10V36H1.5C1.13752 36 0.787316 35.8687 0.514139 35.6305C0.240962 35.3922 0.0632966 35.0631 0.0139999 34.704L0 34.5V5.5C1.52858e-05 5.13752 0.131286 4.78732 0.369534 4.51414C0.607783 4.24096 0.936892 4.0633 1.296 4.014L1.5 4H10ZM20 18C20.5304 18 21.0391 18.2107 21.4142 18.5858C21.7893 18.9609 22 19.4696 22 20C22 20.5304 21.7893 21.0391 21.4142 21.4142C21.0391 21.7893 20.5304 22 20 22C19.4696 22 18.9609 21.7893 18.5858 21.4142C18.2107 21.0391 18 20.5304 18 20C18 19.4696 18.2107 18.9609 18.5858 18.5858C18.9609 18.2107 19.4696 18 20 18Z" fill="#F9614F"/>
</svg>
