<svg width="48" height="48" viewBox="0 0 48 48" fill="none" xmlns="http://www.w3.org/2000/svg">
<path d="M24 11.67L23.5305 11.8125L4.78052 18.0945L0.517517 19.5L3.00002 20.295V33.42C2.10452 33.9405 1.50002 34.89 1.50002 36C1.50002 36.7956 1.81609 37.5587 2.3787 38.1213C2.94131 38.6839 3.70437 39 4.50002 39C5.29567 39 6.05873 38.6839 6.62134 38.1213C7.18395 37.5587 7.50002 36.7956 7.50002 36C7.50002 34.89 6.89552 33.9405 6.00002 33.42V21.33L9.00002 22.3125V30C9.00002 31.23 9.75002 32.25 10.641 32.955C11.532 33.6555 12.639 34.1505 13.968 34.5945C16.629 35.4795 20.136 36 24 36C27.864 36 31.371 35.481 34.032 34.593C35.361 34.1505 36.468 33.6555 37.359 32.9535C38.25 32.25 39 31.23 39 30V22.3125L43.2195 20.9055L47.4825 19.5L43.218 18.093L24.468 11.8125L24 11.67ZM24 14.8125L38.0625 19.5L24 24.1875L9.93752 19.5L24 14.8125ZM12 23.3445L23.532 27.1875L24 27.3285L24.4695 27.186L36 23.343V30C36 30.015 36.006 30.189 35.5305 30.5625C35.0565 30.9375 34.206 31.41 33.093 31.782C30.87 32.5215 27.5925 33 24 33C20.4075 33 17.13 32.523 14.9055 31.7805C13.7955 31.41 12.9435 30.936 12.4695 30.5625C11.9925 30.1875 12 30.015 12 30V23.343V23.3445Z" fill="#0FAB76"/>
</svg>
